<?xml version="1.0" encoding="UTF-8"?>
<!DOCTYPE svg PUBLIC "-//W3C//DTD SVG 1.1//EN" "http://www.w3.org/Graphics/SVG/1.1/DTD/svg11.dtd">
<!-- Creator: CorelDRAW -->
<svg xmlns="http://www.w3.org/2000/svg" xml:space="preserve" width="421px" height="512px" version="1.1" shape-rendering="geometricPrecision" text-rendering="geometricPrecision" image-rendering="optimizeQuality" fill-rule="evenodd" clip-rule="evenodd"
viewBox="0 0 421 511.605"
 xmlns:xlink="http://www.w3.org/1999/xlink"
 xmlns:xodm="http://www.corel.com/coreldraw/odm/2003">
 <g id="Layer_x0020_1">
  <metadata id="CorelCorpID_0Corel-Layer"/>
  <path fill="#E44B4D" d="M95.705 0.014l199.094 0 126.201 136.534 0 317.555c0,31.54 -25.961,57.502 -57.502,57.502l-267.793 0c-31.55,0 -57.502,-25.873 -57.502,-57.502l0 -396.588c0,-31.629 25.873,-57.501 57.502,-57.501z"/>
  <path fill="#CD4445" d="M341.028 133.408l-0.019 0 79.991 55.363 0 -52.066 -54.357 0c-9.458,-0.15 -17.998,-1.274 -25.615,-3.297z"/>
  <path fill="#FBCFD0" d="M294.8 0l126.2 136.533 0 0.172 -54.357 0c-45.068,-0.718 -69.33,-23.397 -71.843,-61.384l0 -75.321z"/>
  <path fill="#CD4445" fill-rule="nonzero" d="M0 431.901l0 -178.497 0.028 -1.261c0.668,-16.446 14.333,-29.706 30.936,-29.706l7.238 0 0 50.589 342.975 0c12.862,0 23.373,10.51 23.373,23.371l0 135.504c0,12.83 -10.543,23.373 -23.373,23.373l-357.804 0c-12.832,0 -23.373,-10.524 -23.373,-23.373z"/>
  <path fill="#963232" fill-rule="nonzero" d="M143.448 240.364c-4.692,0 -8.496,-3.804 -8.496,-8.497 0,-4.693 3.804,-8.497 8.496,-8.497l163.176 0c4.692,0 8.496,3.804 8.496,8.497 0,4.693 -3.804,8.497 -8.496,8.497l-163.176 0zm0 -59.176c-4.692,0 -8.496,-3.804 -8.496,-8.497 0,-4.692 3.804,-8.496 8.496,-8.496l172.304 0c4.693,0 8.497,3.804 8.497,8.496 0,4.693 -3.804,8.497 -8.497,8.497l-172.304 0z"/>
  <path fill="white" fill-rule="nonzero" d="M11.329 276.171l0 154.728c0,7.793 6.38,14.178 14.179,14.178l3.301 0c66.93,0 133.861,0 200.791,0l128.388 0 22.187 0c7.799,0 14.178,-6.379 14.178,-14.178l0 -133.494c0,-7.798 -6.388,-14.178 -14.178,-14.178l-342.283 0c-12.618,-0.096 -19.586,-1.638 -26.563,-7.056z"/>
  <path fill="#1A1A1A" fill-rule="nonzero" d="M143.354 401.572l-2.62 -20.964 10.875 0c2.708,0 4.433,-0.371 5.176,-1.114 0.743,-0.743 1.114,-1.682 1.114,-2.817l0 -36.034 -10.876 0 0 -20.965 37.081 0 0 60.274c0,7.076 -1.747,12.449 -5.241,16.116 -3.493,3.67 -8.516,5.504 -15.069,5.504l-20.44 0zm52.541 -1.44l3.67 -21.62c8.036,2.008 15.264,3.012 21.686,3.012 6.42,0 11.594,-0.262 15.525,-0.786l0 -6.551 -11.792 -1.049c-10.656,-0.961 -17.974,-3.515 -21.947,-7.664 -3.975,-4.149 -5.962,-10.286 -5.962,-18.411 0,-11.181 2.423,-18.866 7.273,-23.06 4.848,-4.194 13.079,-6.29 24.698,-6.29 11.618,0 22.101,1.092 31.448,3.276l-3.275 20.964c-8.125,-1.31 -14.633,-1.965 -19.524,-1.965 -4.892,0 -9.041,0.219 -12.449,0.655l0 6.42 9.434 0.919c11.443,1.134 19.349,3.864 23.716,8.188 4.369,4.325 6.553,10.33 6.553,18.017 0,5.504 -0.743,10.154 -2.229,13.954 -1.483,3.8 -3.254,6.684 -5.307,8.649 -2.053,1.965 -4.956,3.472 -8.713,4.521 -3.755,1.047 -7.054,1.681 -9.892,1.899 -2.839,0.219 -6.617,0.328 -11.334,0.328 -11.357,0 -21.883,-1.135 -31.579,-3.406z"/>
 </g>
</svg>
